<?xml version="1.0" encoding="iso-8859-1"?>
<!-- Generator: Adobe Illustrator 16.0.0, SVG Export Plug-In . SVG Version: 6.00 Build 0)  -->
<!DOCTYPE svg PUBLIC "-//W3C//DTD SVG 1.1//EN" "http://www.w3.org/Graphics/SVG/1.1/DTD/svg11.dtd">
<svg version="1.1" id="&#x30EC;&#x30A4;&#x30E4;&#x30FC;_1"
	 xmlns="http://www.w3.org/2000/svg" xmlns:xlink="http://www.w3.org/1999/xlink" x="0px" y="0px" width="284.954px"
	 height="101.593px" viewBox="0 0 284.954 101.593" style="enable-background:new 0 0 284.954 101.593;" xml:space="preserve">
<g>
	<path d="M106.977,83.031h4.798v1.13h-4.798V83.031z M103.846,80.588h7.929v1.01h-6.639v6.505h5.103
		c-1.877,1.725-4.342,3.004-6.618,3.602l1.251,1.605c1.764-0.582,4.78-2.133,6.866-4.475h0.037v4.762h1.898v-4.762
		c2.01,2.102,5.236,3.826,7.056,4.459l1.121-1.761c-1.5-0.409-4.402-1.416-6.755-3.431h5.275v-6.505h-6.697v-1.01h7.854v-1.604
		h-7.854v-1.366h-1.898v1.366h-7.929V80.588z M106.977,85.509h4.798v1.176h-4.798V85.509z M118.529,83.031v1.13h-4.856v-1.13
		H118.529z M118.529,85.509v1.176h-4.856v-1.176H118.529z"/>
	<path d="M137.128,83.628v2.494h-10.076v-2.494H137.128z M125.155,82.042v5.667h6.033v3.74c0,0.445-0.19,0.461-0.625,0.461h-2.637
		l0.358,1.792h3.091c1.389,0,1.692-0.853,1.692-1.638v-4.355h5.991v-5.667H125.155z M131.019,79.019h-7.836v1.743h17.87v-1.743
		h-7.984v-1.453h-2.05V79.019z M127.243,88.223c-0.796,1.04-2.088,2.492-4.212,3.737l1.386,1.365
		c2.35-1.416,4.151-3.724,4.515-4.182L127.243,88.223z M141.053,91.705c-1.764-0.922-2.997-1.912-4.381-3.533l-1.708,0.921
		c1.518,1.881,2.521,2.936,4.761,4.133L141.053,91.705z"/>
	<path d="M150.07,86.957v1.574h-4.212v-1.574H150.07z M142.938,88.275l1.117-0.531v5.875h1.803v-0.699h5.957v-7.41h-4.021v-0.035
		c0.872-0.618,1.272-0.99,1.593-1.282h3.339v-1.536h-1.877c1.156-1.383,1.972-2.679,2.581-3.619l-1.803-0.684
		c-0.438,0.788-0.684,1.211-0.985,1.708h-0.04v-1.024h-2.637v-1.418h-1.804v1.418h-3.146v1.552h3.146v2.067h-3.698v1.536h4.364
		c-1.557,1.179-3.342,1.997-4.612,2.563L142.938,88.275z M150.07,89.949v1.5h-4.212v-1.5H150.07z M150.241,80.588
		c-0.796,1.111-1.349,1.726-1.67,2.067h-0.606v-2.067H150.241z M153.598,77.995v15.624h1.936v-14.07h2.524
		c-0.342,0.869-0.854,2.219-2.201,4.711c0.738,0.701,2.58,2.442,2.58,4.576c0,1.128-0.267,1.438-1.385,1.438h-1.101l0.209,1.725
		h1.214c1.007,0,1.707,0,2.37-0.752c0.36-0.429,0.742-1.249,0.742-2.443c0-1.228-0.382-2.853-2.524-4.815
		c0.551-0.903,1.764-3.104,2.221-4.438v-1.554H153.598z"/>
	<path d="M163.717,85.44h-0.038c-0.59,0.765-0.909,1.074-1.273,1.418l-0.851-2.187c1.04-1.009,2.826-3.689,3.28-7.035l1.975,0.225
		c-0.059,0.647-0.211,2.063-1.159,4.25v11.523h-1.934V85.44z M174.265,81.035c-1.119-0.875-2.391-1.553-3.72-2.15l1.215-1.437
		c1.232,0.53,2.618,1.282,3.813,2.05l-1.177,1.537h4.913v1.689h-5.084v3.226h4.382v1.692h-4.382v3.789h5.52v1.658h-13.033v-1.658
		h5.502v-3.789h-4.4V85.95h4.4v-3.226h-5.025v-1.689H174.265z"/>
	<path d="M189.92,86.189l9.013-0.854l0.152,1.691L189.92,87.9v3.376c0,0.325,0.284,0.325,0.4,0.325h5.215
		c0.306,0,0.531-0.101,0.608-0.442c0.075-0.289,0.134-1.706,0.134-2.286l2.065,0.457c-0.075,2.564-0.171,4.047-2.065,4.047h-6.528
		c-0.586,0-1.82,0-1.82-1.279v-4.012l-6.525,0.613l-0.133-1.69l6.658-0.631v-2.081c-1.896,0.168-2.715,0.221-3.415,0.271
		l-0.626-1.74c3.814-0.139,7.644-0.48,11.23-1.605l0.984,1.605c-2.198,0.717-3.906,0.973-6.183,1.264V86.189z M189.218,77.536h1.976
		v1.518h7.379v4.063h-1.975v-2.373h-12.785v2.373h-1.992v-4.063h7.397V77.536z"/>
	<path d="M213.563,82.4v3.893h-3.697V82.4H213.563z M207.95,80.675h-2.485V82.4h2.485v3.893h-2.771v1.741h13.299v-1.741H215.5V82.4
		h2.637v-1.725H215.5v-3.109h-1.938v3.109h-3.697v-3.109h-1.915V80.675z M202.333,93.634h1.936V81.907
		c0.835-2.086,1.063-3.382,1.196-4.099l-2.014-0.242c-0.396,2.426-1.213,4.921-3.225,7.156l0.948,2.152
		c0.419-0.445,0.665-0.686,1.121-1.365h0.037V93.634z M208.708,88.699c-1.405,2.222-3.169,3.158-3.909,3.555l1.385,1.381
		c1.65-1.04,3.131-2.322,4.309-4.252L208.708,88.699z M218.704,92.233c-1.345-0.854-3.091-2.373-3.964-3.565l-1.65,0.836
		c0.814,1.124,2.523,3.106,4.211,4.131L218.704,92.233z"/>
	<path d="M234.968,87.385v3.722h-5.063v-3.722H234.968z M228.024,85.833v7.786h1.88v-0.906h5.063v0.906h1.918v-7.786H228.024z
		 M219.925,86.582c0.474-0.017,2.372-0.12,2.921-0.152v7.189h1.785v-7.31l1.27-0.12c0.095,0.258,0.113,0.361,0.207,0.669
		l1.615-0.565c-0.209-0.736-0.854-2.22-1.367-3.037l-1.44,0.58c0.208,0.424,0.306,0.629,0.473,1.005
		c-0.721,0.016-1.991,0.067-2.143,0.067c0.664-0.701,2.75-3.208,3.984-5.102l-1.708-0.701c-0.55,0.988-0.911,1.501-2.163,3.174
		c-0.227-0.289-0.607-0.613-0.835-0.816c0.893-1.095,1.745-2.443,2.185-3.314l-1.728-0.612c-0.569,1.245-1.328,2.353-1.748,2.882
		c-0.188-0.135-0.303-0.221-0.566-0.392l-0.912,1.437c0.95,0.579,2.295,1.875,2.562,2.166c-0.324,0.428-0.739,0.939-1.14,1.349
		c-0.832,0.02-0.929,0.034-1.363,0.034L219.925,86.582z M220.515,87.385c-0.249,2.306-0.342,3.123-0.854,4.643l1.745,0.429
		c0.586-1.52,0.76-4.114,0.796-4.781L220.515,87.385z M225.257,87.695c0.074,0.339,0.454,2.474,0.454,3.839l1.746-0.409
		c-0.058-1.265-0.418-2.834-0.721-3.791L225.257,87.695z M238.192,81.598c-2.901-1.416-4.004-2.817-4.742-3.962h-2.276
		c-0.758,1.212-1.746,2.457-4.932,4.167l1.007,1.708c1.82-1.128,3.87-2.769,5.103-4.492c1.27,1.774,3.052,3.364,4.99,4.371
		L238.192,81.598z M235.804,82.503h-6.944v1.621h6.944V82.503z"/>
	<path d="M254.685,93.567c-0.303-0.514-0.53-0.891-1.08-1.759c-3.626,0.528-12.332,1.007-13.376,1.059l-0.246-1.826
		c0.381,0,2.486-0.104,2.505-0.104c0.759-1.335,2.808-5.345,3.662-8.554l2.199,0.46c-1.101,2.938-1.974,5.02-3.662,7.974
		c4.23-0.205,5.351-0.272,7.874-0.544c-0.589-0.789-1.327-1.711-2.827-3.316l1.726-0.955c1.691,1.626,4.137,4.747,5.201,6.593
		L254.685,93.567z M246.298,78.116c-1.136,2.73-3.243,5.067-5.632,6.813l-1.518-1.606c2.882-1.623,4.345-3.774,5.179-5.757
		L246.298,78.116z M255.921,85.185c-3-2.224-4.975-4.597-5.864-6.901l1.859-0.718c0.437,1.063,1.423,3.247,5.405,5.926
		L255.921,85.185z"/>
	<path d="M263.477,93.649h-1.938v-6.588c-1.079,0.905-1.818,1.33-2.295,1.587l-0.852-1.743c2.445-1.279,4.307-3.12,5.158-4.983
		h-4.895V80.25h2.883v-2.665h1.938v2.665h2.236v1.672c0,0.357-1.519,2.407-1.917,2.887c0.97,0.99,1.424,1.279,2.656,2.097
		l-0.93,1.626c-0.871-0.648-1.385-1.111-2.046-1.795V93.649z M269.961,77.584h1.995v4.833h4.057v1.826h-4.057v7.017h4.494v1.829
		h-11.268V91.26h4.778v-7.017h-3.962v-1.826h3.962V77.584z"/>
	<g>
		<g>
			<path style="fill:#0071BE;" d="M63.27,64.949c0,0,15.39-2.085,19.873-29.646H69.962c-0.928,14.221-6.762,21.926-11.328,25.83
				l4.528-25.629l-12.558-0.02L39.768,95.462H52.57l4.897-27.735c3.3,2.841,7.237,7.761,7.373,15.17
				c-0.122,9.149-1.226,12.628-1.226,12.628h12.802l-0.021-0.22l0.078,0.157l0.443-9.215C77.787,69.728,63.27,64.949,63.27,64.949z"
				/>
			<path style="fill:#0071BE;" d="M79.92,64.949c0,0,15.387-2.085,19.873-29.646H86.615C85.053,59.187,69.66,64.687,69.66,64.687
				s11.594,5.408,11.831,18.21c-0.118,9.149-1.224,12.628-1.224,12.628h12.801l-0.023-0.22l0.083,0.157l0.44-9.215
				C94.437,69.728,79.92,64.949,79.92,64.949z"/>
			<path style="fill:#0071BE;" d="M34.059,35.485c0,0-8.057,50.011-9.056,51.278c-0.987,1.262-1.776,1.437-2.612,1.439H9.909
				l-1.405,7.574h14.717h4.783c6.53-0.291,9.129-7.051,9.383-7.757c0.671-1.843,9.229-52.516,9.229-52.516L34.059,35.485z"/>
		</g>
		<path style="fill:#E5004E;" d="M58.407,10.51c2.238,3.872-4.419,11.079-15.46,17.451c-11.039,6.376-21.798,8.401-24.032,4.53
			c-2.237-3.872,5.354-11.239,16.391-17.609C46.346,8.507,56.174,6.64,58.407,10.51z"/>
	</g>
	<g>
		<path d="M268.591,54.981c0,0.42-0.212,0.622-0.619,0.622h-21.234c-0.408,0-0.617-0.202-0.617-0.622v-5.188
			c0-0.417,0.209-0.622,0.617-0.622h21.234c0.407,0,0.619,0.205,0.619,0.622V54.981z M276.204,42.813v-4.072h-16.543V34.89h-4.046
			v3.851h-16.497v4.072H276.204z M273.03,56.149v-7.733c0-1.99-0.996-2.983-2.986-2.983h-24.962c-1.99,0-2.985,0.993-2.985,2.983
			v7.733c0,1.988,0.995,2.987,2.985,2.987h9.983v8.688c0,1.203,0.088,1.278-4.08,1.278v3.884l3.689,0.012
			c3.453,0,4.918-2.387,4.918-6.529v-7.332h10.451C272.034,59.136,273.03,58.137,273.03,56.149z M251.784,61.613l-4.722,0.014
			c-1.381,2.246-6.474,6.152-8.489,6.685v4.675C241.169,72.986,251.151,65.484,251.784,61.613z M276.136,72.986v-4.675
			c-2.015-0.532-6.861-4.438-8.24-6.685l-4.725-0.014C263.806,65.484,273.538,72.986,276.136,72.986z"/>
		<g>
			<path d="M123.957,34.89v27.205c0,2.471-2.354,5.723-7.349,5.723c-2.701,0-6.62-1.421-6.62-5.904v-6.131h-5.679v5.839
				c0,8.135,7.11,11.319,12.422,11.319c6.215,0,12.866-3.109,12.866-12.57V34.89h-0.354H123.957z"/>
			<path d="M162.735,34.89h-0.854h-6.699l-14.378,18.201V34.89h-0.35h-5.249v38.051h5.599v-19.85l15.166,19.85h7.766
				c0,0-16.317-19.364-16.81-19.85C147.413,52.605,162.735,34.89,162.735,34.89z"/>
			<path d="M193.378,34.89h-0.854h-6.701l-14.371,18.201V34.89h-0.355h-5.248v38.051h5.604v-19.85l15.162,19.85h7.766
				c0,0-16.315-19.364-16.809-19.85C178.055,52.605,193.378,34.89,193.378,34.89z"/>
			<path d="M234.329,42.731v-4.01c0,0-15.937,0-16.61,0c0-0.39,0-3.831,0-3.831h-4.128c0,0,0,3.441,0,3.831
				c-0.667,0-16.903,0-16.903,0v4.01c0,0,16.236,0,16.903,0c0,0.376,0,2.257,0,2.633c-0.66,0-11.106,0-11.106,0
				c-2.185,0-2.341,1.153-2.341,3.338v9.376c0,2.187,0.156,3.341,2.341,3.341c0,0,3.787,0,5.402,0
				c-2.348,3.184-6.711,4.8-11.199,6.38v5.188c5.064-1.385,13.746-8.164,16.81-11.381c0,1.379,0,11.365,0,11.365h4.31
				c0-9.999,0-9.883,0-11.365c3.068,3.217,11.188,9.939,16.21,11.381v-5.078c-4.484-1.576-8.409-3.166-10.899-6.489
				c1.63,0,4.984,0,4.984,0c2.185,0,3.045-1.154,3.045-3.341v-9.376c0-2.185-0.86-3.338-3.045-3.338c0,0-9.717,0-10.383,0
				c0-0.376,0-2.257,0-2.633C218.393,42.731,234.329,42.731,234.329,42.731z M213.558,57.542h-9.126v-2.142h9.126V57.542z
				 M213.558,51.453h-9.126v-2.146h9.126V51.453z M226.647,57.542h-8.929v-2.142h8.929V57.542z M226.647,49.307v2.146h-8.929v-2.146
				H226.647z"/>
		</g>
	</g>
</g>
</svg>
